<svg width="181" height="29" viewBox="0 0 181 29" fill="none" xmlns="http://www.w3.org/2000/svg">
<path fill-rule="evenodd" clip-rule="evenodd" d="M96.8021 13.9751H98.9448L98.9437 25.793L103.244 25.7937L103.244 13.9759H105.422V10.7491H103.244L103.245 9.98145C103.245 9.0826 103.414 8.48918 103.751 8.19849C104.088 7.90818 104.593 7.76303 105.267 7.76303C105.529 7.76303 105.763 7.78632 105.97 7.83289C106.175 7.88024 106.4 7.95049 106.644 8.0448L107.537 4.72182C106.913 4.56192 105.519 4.22388 104.37 4.22388C103.22 4.22388 102.305 4.36942 101.603 4.65933C100.901 4.95003 100.361 5.34784 99.9869 5.85315C99.6128 6.35886 99.3597 6.94296 99.2285 7.60818L99.1974 7.76592L99.1974 7.76607L99.1974 7.76613C99.075 8.38432 98.9456 9.03839 98.9456 9.72802L98.9448 10.7487H96.8021V13.9751ZM72.2303 10.7477L76.4432 10.7489V13.2751H76.4998C76.9485 12.4329 77.4825 11.8007 78.1004 11.3796C78.7182 10.9581 79.4956 10.7477 80.4317 10.7481C80.6755 10.7481 80.9192 10.7582 81.1626 10.7765C81.4055 10.7951 81.6302 10.8327 81.8367 10.8894L81.8359 14.7363C81.5359 14.6436 81.2406 14.5725 80.951 14.526C80.66 14.4794 80.3568 14.4553 80.0386 14.4546C79.2329 14.4546 78.596 14.5671 78.1283 14.7918C77.6603 15.0169 77.3005 15.3297 77.0474 15.7326C76.794 16.1354 76.6302 16.6179 76.5557 17.1791C76.4808 17.7407 76.442 18.3589 76.442 19.0331V25.8083L72.2295 25.8079L72.2303 10.7477ZM46.8865 21.9708C26.6688 12.3779 0 15.066 0 15.066C17.4342 16.0619 31.4065 21.5303 39.039 25.3198C40.8864 26.1519 42.6662 27.05 44.3378 28.0222C45.435 26.3653 46.2756 24.4978 46.7891 22.4614C46.8125 22.3685 46.8291 22.2756 46.8457 22.1826C46.8583 22.112 46.8709 22.0414 46.8865 21.9708ZM154.8 10.7489L150.587 10.7477L150.586 25.8079L154.799 25.8083V19.0331C154.799 18.3589 154.838 17.7407 154.913 17.1791C154.987 16.6179 155.151 16.1354 155.404 15.7326C155.657 15.3297 156.017 15.0169 156.485 14.7918C156.953 14.5671 157.59 14.4546 158.395 14.4546C158.714 14.4553 159.017 14.4794 159.308 14.526C159.598 14.5725 159.893 14.6436 160.193 14.7363L160.194 10.8894C159.987 10.8327 159.763 10.7951 159.519 10.7765C159.276 10.7582 159.032 10.7481 158.789 10.7481C157.852 10.7477 157.075 10.9581 156.458 11.3796C155.839 11.8007 155.305 12.4329 154.857 13.2751H154.8V10.7489ZM85.948 18.4008C85.9468 19.5022 86.2422 20.3921 86.8317 21.0725C87.4212 21.7536 88.2503 22.0932 89.3175 22.0932C90.3841 22.0932 91.2127 21.7536 91.803 21.0725C92.3921 20.3933 92.6879 19.5026 92.6886 18.4019C92.6886 17.3024 92.3933 16.4109 91.8034 15.7302C91.2138 15.0502 90.3852 14.7098 89.3187 14.7098C88.2506 14.7098 87.422 15.0502 86.8325 15.7302C86.243 16.4105 85.948 17.3012 85.948 18.4008ZM81.7351 18.4008C81.7351 17.2411 81.9319 16.1905 82.3242 15.2497C82.7182 14.3089 83.2553 13.504 83.9399 12.8333C84.623 12.1631 85.4283 11.6481 86.3551 11.2875C87.2819 10.9285 88.2704 10.7484 89.3191 10.7484C90.3674 10.7484 91.3543 10.9285 92.2815 11.2883C93.2072 11.6485 94.0125 12.1646 94.6971 12.8353C95.3794 13.5055 95.9181 14.3109 96.3112 15.2516C96.7052 16.192 96.9008 17.243 96.9008 18.4027C96.9 19.5627 96.704 20.6134 96.3105 21.5545C95.9177 22.4953 95.379 23.3006 94.6959 23.9697C94.0113 24.6415 93.2068 25.1554 92.2804 25.5152C91.3539 25.8753 90.365 26.0558 89.3164 26.0558C88.2681 26.0558 87.2815 25.8753 86.3543 25.514C85.4275 25.1542 84.6218 24.6392 83.9391 23.9682C83.2545 23.2987 82.7174 22.4933 82.3242 21.553C81.9311 20.6122 81.7339 19.5616 81.7351 18.4008ZM166.396 21.0725C165.807 20.3921 165.512 19.5022 165.513 18.4008C165.513 17.3012 165.807 16.4105 166.397 15.7302C166.987 15.0502 167.816 14.7098 168.883 14.7098C169.95 14.7098 170.779 15.0502 171.368 15.7302C171.958 16.4109 172.254 17.3024 172.254 18.4019C172.253 19.5026 171.957 20.3933 171.367 21.0725C170.778 21.7536 169.949 22.0932 168.882 22.0932C167.815 22.0932 166.986 21.7536 166.396 21.0725ZM161.889 15.2497C161.497 16.1905 161.3 17.2411 161.3 18.4008C161.299 19.5616 161.496 20.6122 161.889 21.553C162.282 22.4933 162.819 23.2987 163.504 23.9682C164.187 24.6392 164.992 25.1542 165.919 25.514C166.846 25.8753 167.833 26.0558 168.881 26.0558C169.93 26.0558 170.919 25.8753 171.845 25.5152C172.772 25.1554 173.576 24.6415 174.261 23.9697C174.944 23.3006 175.483 22.4953 175.875 21.5545C176.269 20.6134 176.465 19.5627 176.466 18.4027C176.466 17.243 176.27 16.192 175.876 15.2516C175.483 14.3109 174.944 13.5055 174.262 12.8353C173.577 12.1646 172.772 11.6485 171.846 11.2883C170.919 10.9285 169.932 10.7484 168.884 10.7484C167.835 10.7484 166.847 10.9285 165.92 11.2875C164.993 11.6481 164.188 12.1631 163.504 12.8333C162.82 13.504 162.283 14.3089 161.889 15.2497ZM180.249 13.6867C180.249 12.5383 179.324 11.613 178.175 11.613C177.029 11.613 176.102 12.5383 176.102 13.6867C176.1 14.8351 177.029 15.7604 178.175 15.7604C179.322 15.7604 180.249 14.8351 180.249 13.6867ZM179.854 13.6867C179.854 14.6597 179.125 15.3874 178.175 15.3874C177.226 15.3874 176.499 14.6597 176.499 13.6867C176.499 12.7137 177.226 11.986 178.175 11.986C179.125 11.986 179.854 12.7152 179.854 13.6867ZM177.72 14.922V13.893H178.073L178.666 14.922H179.062L178.399 13.8567C178.752 13.8171 178.973 13.5368 178.973 13.24C178.973 12.9464 178.821 12.5869 178.224 12.5869H177.403V14.922H177.72ZM178.135 13.6159H177.72V12.864H178.135C178.386 12.864 178.637 12.9233 178.637 13.24C178.637 13.5566 178.386 13.6159 178.135 13.6159ZM148.435 25.8069L144.284 25.8061V23.9521C144.284 23.9521 144.024 24.4283 143.804 24.7388C143.603 25.0233 143.3 25.2352 142.972 25.4409C142.645 25.647 142.271 25.8146 141.853 25.9466C141.434 26.0774 140.979 26.143 140.488 26.143C139.451 26.143 138.517 25.9776 137.872 25.6512C137.225 25.3233 136.725 24.8696 136.371 24.289C136.015 23.7087 135.779 23.0245 135.66 22.2382C135.543 21.4519 135.483 20.6004 135.483 19.6825L135.484 10.7475H139.839V18.8399C139.839 19.2335 139.853 19.6406 139.88 20.0613C139.908 20.4832 139.989 20.8721 140.125 21.228C140.262 21.5839 140.471 21.8734 140.753 22.0977C141.035 22.3224 141.271 22.435 141.798 22.4361C142.326 22.4361 142.585 22.3376 142.912 22.1408C143.24 21.944 143.49 21.6824 143.662 21.3545C143.836 21.0269 143.95 20.6574 144.003 20.2453C144.058 19.8331 144.086 19.4027 144.086 18.9529V10.7483L148.436 10.7494L148.435 25.8069ZM116.338 25.8061L120.489 25.8069L120.489 10.7494L116.14 10.7483V18.9529C116.139 19.4027 116.112 19.8331 116.057 20.2453C116.004 20.6574 115.889 21.0269 115.716 21.3545C115.544 21.6824 115.293 21.944 114.966 22.1408C114.639 22.3376 114.38 22.4361 113.852 22.4361C113.325 22.435 113.089 22.3224 112.807 22.0977C112.525 21.8734 112.316 21.5839 112.179 21.228C112.043 20.8721 111.961 20.4832 111.934 20.0613C111.907 19.6406 111.893 19.2335 111.894 18.8399V10.7475H107.538L107.537 19.6825C107.537 20.6004 107.596 21.4519 107.714 22.2382C107.832 23.0245 108.069 23.7087 108.425 24.289C108.779 24.8696 109.279 25.3233 109.925 25.6512C110.57 25.9776 111.505 26.143 112.542 26.143C113.032 26.143 113.487 26.0774 113.907 25.9466C114.325 25.8146 114.698 25.647 115.026 25.4409C115.354 25.2352 115.657 25.0233 115.858 24.7388C116.077 24.4283 116.338 23.9521 116.338 23.9521V25.8061ZM133.376 14.1187H129.063L129.062 20.0781C129.062 20.4534 129.081 20.795 129.119 21.1035C129.156 21.4124 129.24 21.6791 129.371 21.9038C129.502 22.1281 129.704 22.3016 129.976 22.4238C130.247 22.5449 130.608 22.6059 131.057 22.6059C131.282 22.6059 131.576 22.5826 131.941 22.5352C132.306 22.4898 132.724 22.3811 133.376 21.9492V25.4604C132.443 25.892 131.815 26.0045 131.31 26.0608C130.803 26.1167 130.306 26.145 129.82 26.145C129.108 26.145 128.365 26.0697 127.767 25.9199C127.167 25.7701 126.643 25.5306 126.194 25.2027C125.744 24.8759 125.481 24.4494 125.229 23.925C124.976 23.4011 124.762 22.7642 124.762 22.0159L124.763 14.1176H122.605V10.7484H124.762V6.43652H129.064L129.063 10.7492H133.376V14.1187ZM63.6579 12.9161H60.3462L60.3473 8.58322H62.9748C63.392 8.58322 63.829 8.60495 64.2855 8.64726C64.7411 8.68995 65.1544 8.78892 65.5255 8.94416C65.8957 9.09863 66.1996 9.31791 66.4371 9.602C66.6746 9.88493 66.7938 10.2591 66.7938 10.724C66.7926 11.1537 66.7022 11.5103 66.5221 11.794C66.3416 12.0774 66.1041 12.3017 65.8099 12.4647C65.5146 12.6281 65.1824 12.7441 64.8121 12.8128C64.4411 12.8811 64.0561 12.9161 63.6579 12.9161ZM63.4231 4.30123L55.9276 4.30084L55.926 25.8012L60.2123 25.8016L60.213 17.2539H63.6218C64.6864 17.2539 65.6741 17.1495 66.5862 16.9396C67.4982 16.73 68.2865 16.376 68.9517 15.8761C69.6169 15.377 70.1393 14.7064 70.5192 13.8669C70.8988 13.0271 71.089 11.9881 71.0898 10.7489C71.0898 9.48945 70.8856 8.44466 70.4773 7.61605C70.0683 6.78667 69.5175 6.12727 68.8244 5.63671C68.1301 5.1473 67.3181 4.80189 66.3875 4.60123C65.4564 4.40175 64.4675 4.30123 63.4231 4.30123Z" fill="#004B8D"/>
<path fill-rule="evenodd" clip-rule="evenodd" d="M16.4472 5.36893C20.5383 1.2414 26.5171 -0.811686 32.5599 0.298302L27.9872 14.2935L16.4472 5.36893ZM46.1276 11.4342C47.2706 14.3139 47.6773 17.5077 47.1968 20.7367C43.4532 18.9875 39.491 17.6462 35.5218 16.6123L46.1276 11.4342ZM46.0079 11.1279C43.8853 6.04874 39.4791 1.99728 33.7305 0.548476C33.4829 0.485991 33.2349 0.432432 32.9876 0.380814L31.7038 15.0261L46.0079 11.1279ZM11.8516 13.3711C12.6666 10.3551 14.1981 7.7195 16.2209 5.60315L24.1332 14.395C19.6079 13.7821 15.3915 13.4891 11.8516 13.3711Z" fill="#FFC000"/>
</svg>
